<?xml version="1.0" standalone="no"?>
<!DOCTYPE svg PUBLIC "-//W3C//DTD SVG 20010904//EN"
 "http://www.w3.org/TR/2001/REC-SVG-20010904/DTD/svg10.dtd">
<svg version="1.0" xmlns="http://www.w3.org/2000/svg"
 width="460.000000pt" height="460.000000pt" viewBox="0 0 460.000000 460.000000"
 preserveAspectRatio="xMidYMid meet">
<metadata>
Created by potrace 1.14, written by Peter Selinger 2001-2017
</metadata>
<g transform="translate(0.000000,460.000000) scale(0.100000,-0.100000)"
fill="#000000" stroke="none">
<path d="M2355 3730 c-3 -5 -17 -10 -31 -10 -13 0 -24 -4 -24 -9 0 -5 -9 -7
-20 -4 -12 3 -22 -1 -26 -11 -3 -9 -15 -16 -25 -16 -12 0 -19 -7 -19 -19 0
-10 -9 -21 -20 -24 -11 -3 -20 -12 -20 -21 0 -9 -7 -16 -15 -16 -9 0 -15 -9
-15 -25 0 -16 -6 -25 -15 -25 -8 0 -15 -9 -15 -20 0 -15 7 -20 26 -20 21 0 25
4 21 20 -4 15 0 20 14 20 12 0 19 7 19 19 0 10 7 21 15 25 8 3 15 12 15 21 0
8 9 15 20 15 11 0 20 7 20 15 0 8 9 15 20 15 11 0 20 4 20 9 0 5 23 12 50 16
44 6 50 10 50 31 0 17 -6 24 -19 24 -11 0 -23 -4 -26 -10z"/>
<path d="M2410 3710 c0 -15 7 -20 25 -20 18 0 25 5 25 20 0 15 -7 20 -25 20
-18 0 -25 -5 -25 -20z"/>
<path d="M2477 3713 c-4 -3 -7 -15 -7 -25 0 -13 7 -18 25 -18 20 0 25 5 25 25
0 18 -5 25 -18 25 -10 0 -22 -3 -25 -7z"/>
<path d="M2542 3668 c2 -15 11 -24 26 -26 18 -3 22 1 22 22 0 21 -5 26 -26 26
-21 0 -25 -4 -22 -22z"/>
<path d="M2612 3618 c2 -15 11 -24 26 -26 18 -3 22 1 22 22 0 21 -5 26 -26 26
-21 0 -25 -4 -22 -22z"/>
<path d="M2690 3556 c0 -21 5 -26 26 -26 21 0 25 4 22 23 -2 14 -11 23 -25 25
-19 3 -23 -1 -23 -22z"/>
<path d="M2080 3481 c0 -11 -4 -23 -10 -26 -5 -3 -10 -15 -10 -26 0 -14 7 -19
25 -19 20 0 25 5 25 25 0 14 5 25 10 25 6 0 10 9 10 20 0 15 -7 20 -25 20 -18
0 -25 -5 -25 -19z"/>
<path d="M2760 3470 c0 -15 7 -20 25 -20 18 0 25 5 25 20 0 15 -7 20 -25 20
-18 0 -25 -5 -25 -20z"/>
<path d="M2040 3380 c0 -15 7 -20 25 -20 18 0 25 5 25 20 0 15 -7 20 -25 20
-18 0 -25 -5 -25 -20z"/>
<path d="M2847 3393 c-4 -3 -7 -15 -7 -25 0 -29 44 -20 48 10 3 16 -2 22 -16
22 -10 0 -22 -3 -25 -7z"/>
<path d="M2022 3325 c3 -14 1 -25 -3 -25 -5 0 -9 -9 -9 -20 0 -14 7 -20 24
-20 18 0 25 7 30 31 10 52 8 59 -20 59 -23 0 -26 -3 -22 -25z"/>
<path d="M2910 3260 c0 -15 7 -20 25 -20 18 0 25 5 25 20 0 15 -7 20 -25 20
-18 0 -25 -5 -25 -20z"/>
<path d="M2000 3225 c0 -14 -4 -25 -8 -25 -5 0 -19 -53 -31 -117 -31 -164 -51
-262 -62 -304 -5 -20 -9 -46 -9 -58 0 -16 -6 -21 -25 -21 -18 0 -25 -5 -25
-20 0 -13 7 -20 20 -20 11 0 20 -2 20 -5 0 -12 -24 -55 -32 -55 -4 0 -8 -7 -8
-15 0 -8 -9 -15 -20 -15 -13 0 -20 -7 -20 -20 0 -15 -7 -20 -25 -20 -16 0 -25
-6 -25 -15 0 -8 -9 -15 -20 -15 -15 0 -20 -7 -20 -25 0 -18 5 -25 20 -25 13 0
20 7 20 20 0 15 7 20 25 20 16 0 25 6 25 15 0 8 9 15 20 15 11 0 20 -2 20 -5
0 -2 -12 -40 -26 -82 -49 -148 -121 -272 -222 -383 -128 -141 -145 -269 -49
-370 l34 -35 -49 -32 c-27 -17 -63 -37 -79 -43 -16 -7 -29 -16 -29 -21 0 -5
-6 -9 -14 -9 -8 0 -21 -6 -28 -12 -25 -25 -201 -78 -255 -78 -45 0 -54 4 -78
32 -25 30 -27 37 -22 102 2 39 10 72 16 74 6 2 11 12 11 23 0 10 5 19 10 19 6
0 10 11 10 25 0 14 5 25 10 25 6 0 10 11 10 24 0 15 7 26 20 29 12 3 20 14 20
26 0 12 6 21 15 21 9 0 15 9 15 25 0 20 -5 25 -26 25 -23 0 -26 -3 -22 -25 4
-19 1 -25 -13 -25 -14 0 -19 -7 -19 -25 0 -16 -6 -25 -15 -25 -9 0 -15 -9 -15
-25 0 -16 -6 -25 -15 -25 -8 0 -15 -9 -15 -20 0 -11 -4 -20 -10 -20 -5 0 -10
-11 -10 -24 0 -13 -6 -26 -12 -28 -9 -3 -13 -32 -13 -96 0 -79 3 -93 21 -110
72 -68 167 -68 333 -3 57 23 109 48 117 56 8 7 24 17 35 20 20 7 81 44 106 65
16 13 63 13 63 0 0 -5 7 -10 15 -10 8 0 15 -6 15 -12 1 -14 61 -48 85 -48 8 0
17 -15 21 -35 6 -31 10 -35 38 -35 63 0 105 -12 111 -31 7 -23 55 -27 55 -5 0
28 -12 46 -31 46 -25 0 -59 35 -59 60 0 18 -7 20 -55 20 -30 0 -55 4 -55 8 0
5 -16 14 -35 22 -19 8 -35 17 -35 22 0 4 -5 8 -11 8 -6 0 -17 7 -25 15 -14 13
-14 17 1 31 23 23 163 76 201 76 36 0 216 -50 224 -62 6 -9 107 -43 160 -55
19 -4 37 -11 40 -14 5 -8 149 -41 175 -41 8 0 15 9 15 20 0 15 -7 20 -25 20
-14 0 -25 5 -25 11 0 7 -10 9 -25 7 -14 -3 -25 -2 -25 2 0 4 -27 13 -60 20
-33 7 -63 17 -66 21 -3 5 -18 9 -34 9 -15 0 -30 4 -32 8 -3 8 -51 28 -187 78
-114 43 -240 25 -358 -49 l-39 -25 -34 40 c-91 106 -80 149 91 352 90 107 180
304 218 476 6 24 15 46 20 48 6 2 11 10 11 18 0 8 9 14 20 14 11 0 20 7 20 15
0 8 7 15 15 15 8 0 15 5 15 10 0 6 7 10 15 10 8 0 15 7 15 15 0 8 7 15 15 15
8 0 15 7 15 15 0 8 7 15 15 15 8 0 15 5 15 10 0 7 13 8 35 4 27 -5 36 -3 41
11 4 9 2 21 -4 27 -8 8 -3 19 19 38 16 16 29 31 29 34 0 4 10 18 23 31 28 31
35 40 72 95 17 25 35 50 40 56 6 6 25 30 44 53 60 73 108 87 170 49 42 -26
121 -103 121 -118 0 -5 5 -10 10 -10 6 0 10 -7 10 -15 0 -8 5 -15 10 -15 6 0
10 -7 10 -15 0 -8 5 -15 10 -15 6 0 10 -9 10 -20 0 -11 5 -20 10 -20 6 0 10
-7 10 -15 0 -8 4 -15 9 -15 5 0 12 -16 15 -35 4 -19 11 -35 16 -35 6 0 10 -9
10 -20 0 -11 5 -20 10 -20 6 0 10 -8 10 -17 1 -10 9 -36 20 -58 11 -22 19 -48
20 -57 0 -9 4 -19 9 -22 5 -3 14 -28 21 -56 7 -27 15 -50 19 -50 4 0 14 -25
21 -55 7 -30 17 -55 21 -55 4 0 11 -15 15 -32 3 -18 15 -49 25 -68 11 -19 19
-40 19 -47 0 -7 4 -13 9 -13 5 0 12 -13 16 -30 4 -16 11 -30 16 -30 5 0 9 -7
9 -15 0 -8 4 -15 10 -15 5 0 12 -11 16 -25 3 -14 10 -25 15 -25 5 0 9 -6 9
-13 0 -7 9 -19 20 -27 11 -8 20 -20 20 -27 0 -7 5 -13 10 -13 6 0 10 -7 10
-15 0 -8 5 -15 10 -15 6 0 10 -7 10 -15 0 -8 6 -15 13 -15 7 0 19 -9 27 -20 8
-11 18 -20 23 -20 12 0 37 -27 37 -39 0 -6 7 -11 15 -11 8 0 15 -7 15 -15 0
-8 7 -15 15 -15 8 0 15 -4 15 -10 0 -5 7 -10 15 -10 8 0 15 -7 15 -15 0 -8 5
-15 10 -15 6 0 21 -11 34 -25 13 -14 27 -25 32 -25 5 -1 20 -14 34 -30 13 -17
30 -30 37 -30 7 0 13 -4 13 -10 0 -5 7 -10 15 -10 8 0 15 -7 15 -15 0 -8 7
-15 15 -15 8 0 15 -7 15 -15 0 -8 7 -15 15 -15 8 0 15 -7 15 -15 0 -8 5 -15
10 -15 13 0 50 -37 50 -50 0 -5 7 -10 15 -10 8 0 15 -9 15 -20 0 -11 5 -20 10
-20 6 0 10 -6 10 -14 0 -8 4 -16 8 -18 4 -1 15 -26 24 -55 13 -39 14 -60 7
-87 -6 -20 -14 -36 -19 -36 -5 0 -5 13 0 30 15 51 -14 160 -42 160 -4 0 -8 5
-8 11 0 14 -76 89 -90 89 -5 0 -10 6 -10 14 0 8 -13 17 -30 21 -16 4 -30 13
-30 21 0 8 -7 14 -15 14 -8 0 -15 5 -15 10 0 6 -7 10 -15 10 -8 0 -15 4 -15 9
0 5 -13 12 -30 16 -16 4 -30 11 -30 16 0 5 -6 9 -14 9 -8 0 -16 3 -18 8 -1 4
-25 18 -53 32 -27 14 -52 27 -55 30 -3 3 -31 19 -62 35 -32 15 -58 32 -58 37
0 4 -9 8 -20 8 -11 0 -20 4 -20 8 0 5 -17 17 -38 26 -84 38 -180 158 -214 266
-52 167 -72 225 -84 249 -8 14 -14 32 -14 39 0 6 -4 12 -10 12 -5 0 -10 9 -10
20 0 11 -4 20 -10 20 -5 0 -10 9 -10 20 0 11 -7 20 -15 20 -8 0 -15 9 -15 20
0 11 -4 20 -10 20 -5 0 -10 7 -10 15 0 8 -7 15 -15 15 -8 0 -15 9 -15 20 0 13
-7 20 -20 20 -11 0 -20 7 -20 15 0 8 -9 15 -20 15 -13 0 -20 7 -20 20 0 13 -7
20 -19 20 -10 0 -22 7 -25 16 -4 10 -14 14 -26 11 -13 -3 -20 0 -20 9 0 8 -10
14 -24 14 -13 0 -26 7 -30 15 -3 8 -15 15 -26 15 -15 0 -20 -7 -20 -25 0 -20
5 -25 25 -25 14 0 25 -4 25 -10 0 -5 11 -10 25 -10 16 0 25 -6 25 -15 0 -9 9
-15 25 -15 16 0 25 -6 25 -15 0 -8 7 -15 15 -15 8 0 15 -7 15 -15 0 -8 9 -15
20 -15 11 0 20 -7 20 -15 0 -8 7 -15 15 -15 9 0 15 -9 15 -25 0 -16 6 -25 15
-25 8 0 15 -7 15 -15 0 -8 5 -15 10 -15 6 0 10 -9 10 -20 0 -11 5 -20 10 -20
6 0 10 -7 10 -15 0 -8 5 -15 10 -15 6 0 10 -8 10 -17 0 -10 7 -30 14 -45 8
-16 38 -99 65 -186 69 -215 115 -282 246 -362 22 -13 42 -26 45 -30 3 -3 30
-16 60 -30 30 -14 61 -31 68 -37 7 -7 20 -13 28 -13 8 0 14 -4 14 -9 0 -5 12
-12 28 -15 15 -4 50 -22 77 -39 28 -18 67 -41 88 -51 20 -11 37 -23 37 -28 0
-4 7 -8 15 -8 8 0 15 -4 15 -10 0 -5 7 -10 15 -10 8 0 15 -4 15 -10 0 -5 7
-10 15 -10 8 0 15 -4 15 -10 0 -5 7 -10 15 -10 8 0 15 -5 15 -10 0 -6 10 -21
23 -34 64 -67 83 -113 66 -163 -6 -18 -15 -33 -20 -33 -5 0 -9 -7 -9 -15 0 -8
-7 -15 -15 -15 -8 0 -15 -4 -15 -10 0 -5 -9 -10 -20 -10 -11 0 -20 -6 -20 -14
0 -9 -8 -12 -25 -8 -21 4 -25 0 -26 -19 -1 -17 -3 -19 -6 -6 -3 10 -14 17 -29
17 -19 0 -24 -5 -24 -25 0 -14 -4 -25 -10 -25 -5 0 -10 9 -10 21 0 15 -5 20
-22 17 -27 -4 -39 -48 -14 -48 10 0 16 -9 16 -21 0 -30 44 -22 48 9 4 24 32
31 32 7 0 -9 9 -15 25 -15 18 0 25 5 25 19 0 11 5 23 10 26 6 3 10 -1 10 -9 0
-10 9 -16 25 -16 14 0 25 6 25 14 0 9 8 12 25 8 18 -3 25 0 25 12 0 10 9 16
25 16 16 0 25 6 25 15 0 8 7 15 15 15 8 0 15 7 15 15 0 8 5 15 10 15 6 0 10 7
10 15 0 8 5 15 10 15 6 0 10 23 10 51 0 56 -18 129 -32 129 -4 0 -8 9 -8 20 0
11 -7 20 -15 20 -8 0 -15 7 -15 15 0 8 -4 15 -10 15 -5 0 -10 7 -10 15 0 8 -7
15 -15 15 -8 0 -15 7 -15 15 0 8 -7 15 -15 15 -8 0 -15 9 -15 20 0 11 -5 20
-10 20 -6 0 -21 11 -34 25 -13 14 -31 25 -40 25 -9 0 -16 8 -16 20 0 11 -7 20
-15 20 -8 0 -15 5 -15 10 0 6 -7 10 -15 10 -8 0 -15 7 -15 15 0 8 -7 15 -15
15 -8 0 -15 7 -15 15 0 8 -6 15 -13 15 -16 0 -77 55 -77 69 0 6 -7 11 -15 11
-8 0 -15 5 -15 10 0 6 -5 10 -11 10 -14 0 -39 25 -39 39 0 6 -5 11 -10 11 -12
0 -70 57 -70 68 0 4 -9 14 -20 22 -11 8 -20 18 -20 23 0 4 -10 18 -22 31 -38
39 -52 59 -73 103 -11 24 -23 43 -27 43 -5 0 -8 6 -8 14 0 7 -11 34 -25 60
-14 26 -25 54 -25 62 0 7 -4 14 -8 14 -4 0 -13 21 -20 46 -7 25 -21 66 -32 90
-11 23 -20 50 -20 58 0 9 -4 16 -8 16 -4 0 -13 21 -20 48 -15 57 -34 102 -43
102 -4 0 -10 16 -13 35 -4 19 -11 35 -16 35 -6 0 -10 11 -10 25 0 14 -4 25 -9
25 -5 0 -12 12 -16 27 -3 15 -15 39 -26 54 -10 15 -19 32 -19 38 0 10 -18 36
-47 66 -7 8 -13 16 -13 19 0 8 -29 43 -65 78 -68 68 -161 87 -229 47 -35 -20
-92 -84 -116 -129 -7 -13 -19 -30 -26 -37 -6 -7 -22 -28 -34 -48 -12 -19 -26
-35 -31 -35 -5 0 -9 -5 -9 -11 0 -6 -18 -28 -40 -50 -22 -22 -40 -42 -40 -46
0 -9 -53 -53 -72 -59 -10 -3 -21 -16 -24 -30 -6 -23 -34 -35 -34 -14 0 6 -11
10 -23 10 -22 0 -23 2 -16 43 20 116 33 183 60 306 34 159 35 161 9 161 -15 0
-20 -7 -20 -25z m-50 -550 c0 -8 -4 -15 -10 -15 -5 0 -10 7 -10 15 0 8 5 15
10 15 6 0 10 -7 10 -15z m1770 -1465 c0 -5 -4 -10 -10 -10 -5 0 -10 5 -10 10
0 6 5 10 10 10 6 0 10 -4 10 -10z m-46 -25 c-4 -8 -8 -15 -10 -15 -2 0 -4 7
-4 15 0 8 4 15 10 15 5 0 7 -7 4 -15z"/>
<path d="M2980 3140 c0 -15 7 -20 25 -20 18 0 25 5 25 20 0 15 -7 20 -25 20
-18 0 -25 -5 -25 -20z"/>
<path d="M3050 3005 c0 -18 5 -25 20 -25 15 0 20 7 20 25 0 18 -5 25 -20 25
-15 0 -20 -7 -20 -25z"/>
<path d="M3100 2860 c0 -15 7 -20 25 -20 18 0 25 5 25 20 0 15 -7 20 -25 20
-18 0 -25 -5 -25 -20z"/>
<path d="M2200 2775 c0 -22 4 -26 23 -23 14 2 22 10 22 23 0 13 -8 21 -22 23
-19 3 -23 -1 -23 -23z"/>
<path d="M2270 2775 c0 -20 5 -25 25 -25 20 0 25 5 25 25 0 20 -5 25 -25 25
-20 0 -25 -5 -25 -25z"/>
<path d="M2340 2765 c0 -22 4 -26 23 -23 14 2 22 10 22 23 0 13 -8 21 -22 23
-19 3 -23 -1 -23 -23z"/>
<path d="M3150 2715 c0 -18 5 -25 20 -25 15 0 20 7 20 25 0 18 -5 25 -20 25
-15 0 -20 -7 -20 -25z"/>
<path d="M1740 2625 c0 -18 5 -25 20 -25 15 0 20 7 20 25 0 18 -5 25 -20 25
-15 0 -20 -7 -20 -25z"/>
<path d="M3180 2575 c0 -20 5 -25 25 -25 20 0 25 5 25 25 0 20 -5 25 -25 25
-20 0 -25 -5 -25 -25z"/>
<path d="M1630 2560 c0 -15 7 -20 25 -20 18 0 25 5 25 20 0 15 -7 20 -25 20
-18 0 -25 -5 -25 -20z"/>
<path d="M1520 2485 c0 -18 5 -25 20 -25 15 0 20 7 20 25 0 18 -5 25 -20 25
-15 0 -20 -7 -20 -25z"/>
<path d="M1660 2436 c0 -21 5 -26 26 -26 21 0 25 4 22 23 -2 14 -11 23 -25 25
-19 3 -23 -1 -23 -22z"/>
<path d="M3210 2440 c0 -13 7 -20 20 -20 13 0 20 7 20 20 0 13 -7 20 -20 20
-13 0 -20 -7 -20 -20z"/>
<path d="M1400 2400 c0 -15 7 -20 25 -20 18 0 25 5 25 20 0 15 -7 20 -25 20
-18 0 -25 -5 -25 -20z"/>
<path d="M1610 2395 c0 -22 4 -26 23 -23 14 2 22 10 22 23 0 13 -8 21 -22 23
-19 3 -23 -1 -23 -23z"/>
<path d="M1560 2345 c0 -18 5 -25 20 -25 15 0 20 7 20 25 0 18 -5 25 -20 25
-15 0 -20 -7 -20 -25z"/>
<path d="M1297 2334 c-4 -4 -7 -16 -7 -26 0 -13 7 -18 26 -18 21 0 25 4 22 22
-3 23 -27 35 -41 22z"/>
<path d="M3227 2334 c-4 -4 -7 -16 -7 -26 0 -13 7 -18 26 -18 21 0 25 4 22 22
-3 23 -27 35 -41 22z"/>
<path d="M1502 2308 c2 -15 11 -24 26 -26 18 -3 22 1 22 22 0 21 -5 26 -26 26
-21 0 -25 -4 -22 -22z"/>
<path d="M1450 2250 c0 -15 7 -20 25 -20 18 0 25 5 25 20 0 15 -7 20 -25 20
-18 0 -25 -5 -25 -20z"/>
<path d="M1187 2233 c-4 -3 -7 -15 -7 -25 0 -13 7 -18 25 -18 20 0 25 5 25 25
0 18 -5 25 -18 25 -10 0 -22 -3 -25 -7z"/>
<path d="M1400 2205 c0 -18 5 -25 20 -25 15 0 20 7 20 25 0 18 -5 25 -20 25
-15 0 -20 -7 -20 -25z"/>
<path d="M3222 2188 c2 -15 11 -24 26 -26 18 -3 22 1 22 22 0 21 -5 26 -26 26
-21 0 -25 -4 -22 -22z"/>
<path d="M1340 2150 c0 -15 7 -20 25 -20 18 0 25 5 25 20 0 15 -7 20 -25 20
-18 0 -25 -5 -25 -20z"/>
<path d="M1080 2105 c0 -20 5 -25 25 -25 20 0 25 5 25 25 0 20 -5 25 -25 25
-20 0 -25 -5 -25 -25z"/>
<path d="M1294 2105 c-8 -20 4 -35 27 -35 14 0 19 7 19 25 0 18 -5 25 -20 25
-11 0 -23 -7 -26 -15z"/>
<path d="M3220 2080 c0 -13 7 -20 20 -20 13 0 20 7 20 20 0 13 -7 20 -20 20
-13 0 -20 -7 -20 -20z"/>
<path d="M1247 2063 c-4 -3 -7 -15 -7 -25 0 -13 7 -18 25 -18 20 0 25 5 25 25
0 18 -5 25 -18 25 -10 0 -22 -3 -25 -7z"/>
<path d="M990 2000 c0 -15 7 -20 25 -20 18 0 25 5 25 20 0 15 -7 20 -25 20
-18 0 -25 -5 -25 -20z"/>
<path d="M1200 1990 c0 -13 7 -20 20 -20 13 0 20 7 20 20 0 13 -7 20 -20 20
-13 0 -20 -7 -20 -20z"/>
<path d="M1154 1945 c-8 -20 4 -35 27 -35 14 0 19 7 19 25 0 18 -5 25 -20 25
-11 0 -23 -7 -26 -15z"/>
<path d="M3177 1913 c-4 -3 -7 -15 -7 -25 0 -13 7 -18 25 -18 20 0 25 5 25 25
0 18 -5 25 -18 25 -10 0 -22 -3 -25 -7z"/>
<path d="M910 1890 c0 -13 7 -20 20 -20 13 0 20 7 20 20 0 13 -7 20 -20 20
-13 0 -20 -7 -20 -20z"/>
<path d="M840 1785 c0 -18 5 -25 20 -25 15 0 20 7 20 25 0 18 -5 25 -20 25
-15 0 -20 -7 -20 -25z"/>
<path d="M3090 1755 c0 -20 5 -25 25 -25 20 0 25 5 25 25 0 20 -5 25 -25 25
-20 0 -25 -5 -25 -25z"/>
<path d="M3047 1724 c-4 -4 -7 -16 -7 -26 0 -13 7 -18 26 -18 21 0 25 4 22 22
-3 23 -27 35 -41 22z"/>
<path d="M780 1690 c0 -15 7 -20 25 -20 18 0 25 5 25 20 0 15 -7 20 -25 20
-18 0 -25 -5 -25 -20z"/>
<path d="M2990 1656 c0 -21 5 -26 26 -26 21 0 25 4 22 23 -2 14 -11 23 -25 25
-19 3 -23 -1 -23 -22z"/>
<path d="M2937 1643 c-4 -3 -7 -15 -7 -25 0 -29 44 -20 48 10 3 16 -2 22 -16
22 -10 0 -22 -3 -25 -7z"/>
<path d="M740 1595 c0 -18 5 -25 20 -25 15 0 20 7 20 25 0 18 -5 25 -20 25
-15 0 -20 -7 -20 -25z"/>
<path d="M2870 1594 c0 -21 4 -25 23 -22 14 2 23 11 25 26 3 18 -1 22 -22 22
-21 0 -26 -5 -26 -26z"/>
<path d="M2810 1574 c0 -21 4 -25 23 -22 14 2 23 11 25 26 3 18 -1 22 -22 22
-21 0 -26 -5 -26 -26z"/>
<path d="M2510 1565 c0 -18 5 -25 20 -25 15 0 20 7 20 25 0 18 -5 25 -20 25
-15 0 -20 -7 -20 -25z"/>
<path d="M2750 1565 c0 -18 5 -25 20 -25 15 0 20 7 20 25 0 18 -5 25 -20 25
-15 0 -20 -7 -20 -25z"/>
<path d="M2562 1563 c2 -10 13 -19 26 -21 17 -3 22 2 22 17 0 16 -6 21 -26 21
-19 0 -25 -5 -22 -17z"/>
<path d="M2622 1558 c2 -15 10 -23 23 -23 13 0 21 8 23 23 3 18 -1 22 -23 22
-22 0 -26 -4 -23 -22z"/>
<path d="M2682 1563 c2 -10 13 -19 26 -21 17 -3 22 2 22 17 0 16 -6 21 -26 21
-19 0 -25 -5 -22 -17z"/>
<path d="M710 1510 c0 -15 7 -20 25 -20 18 0 25 5 25 20 0 15 -7 20 -25 20
-18 0 -25 -5 -25 -20z"/>
<path d="M700 1435 c0 -18 5 -25 20 -25 15 0 20 7 20 25 0 18 -5 25 -20 25
-15 0 -20 -7 -20 -25z"/>
<path d="M2002 1403 c3 -24 9 -29 46 -36 26 -5 42 -14 42 -23 0 -10 12 -14 45
-14 33 0 45 -4 45 -15 0 -11 11 -15 40 -15 36 0 40 2 40 26 0 25 -2 25 -40 19
-37 -6 -40 -5 -40 15 0 20 -4 22 -35 16 -31 -6 -35 -4 -35 14 0 16 -6 20 -35
20 -19 0 -35 5 -35 10 0 6 -9 10 -21 10 -16 0 -20 -5 -17 -27z"/>
<path d="M700 1375 c0 -18 5 -25 20 -25 15 0 20 7 20 25 0 18 -5 25 -20 25
-15 0 -20 -7 -20 -25z"/>
<path d="M710 1320 c0 -15 7 -20 25 -20 18 0 25 5 25 20 0 15 -7 20 -25 20
-18 0 -25 -5 -25 -20z"/>
<path d="M2288 1313 c-11 -3 -18 -14 -18 -29 0 -19 5 -24 25 -24 14 0 25 5 25
10 0 6 7 10 15 10 8 0 15 9 15 20 0 20 -20 24 -62 13z"/>
<path d="M730 1270 c0 -11 7 -20 15 -20 8 0 15 -7 15 -15 0 -8 9 -15 20 -15
11 0 20 -7 20 -15 0 -8 9 -15 20 -15 11 0 20 -4 20 -10 0 -5 11 -10 24 -10 14
0 27 -4 30 -9 3 -5 37 -9 76 -9 67 0 70 1 70 23 0 21 -4 23 -61 24 -75 1 -129
10 -129 22 0 5 -9 9 -20 9 -11 0 -20 7 -20 15 0 8 -7 15 -15 15 -8 0 -15 7
-15 15 0 9 -9 15 -25 15 -18 0 -25 -5 -25 -20z"/>
<path d="M2382 1278 c-7 -7 -12 -20 -12 -31 0 -14 6 -18 28 -15 21 2 28 9 30
31 3 21 -1 27 -15 27 -11 0 -24 -5 -31 -12z"/>
<path d="M2487 1263 c-4 -3 -7 -19 -7 -35 0 -23 4 -28 25 -28 22 0 25 4 25 35
0 27 -4 35 -18 35 -10 0 -22 -3 -25 -7z"/>
<path d="M2580 1228 c1 -37 14 -58 36 -58 25 0 28 9 18 48 -4 15 -14 22 -30
22 -13 0 -24 -6 -24 -12z"/>
<path d="M2680 1195 c0 -16 6 -25 15 -25 8 0 15 -7 15 -16 0 -10 7 -14 23 -12
26 4 38 48 13 48 -9 0 -16 7 -16 15 0 9 -9 15 -25 15 -20 0 -25 -5 -25 -25z"/>
<path d="M1106 1201 c-3 -4 -17 -6 -31 -3 -22 4 -25 1 -25 -22 0 -19 5 -26 19
-26 11 0 22 4 25 9 3 4 17 6 31 3 22 -4 25 -1 25 22 0 19 -5 26 -19 26 -11 0
-22 -4 -25 -9z"/>
<path d="M2790 1175 c0 -18 5 -25 20 -25 11 0 20 -7 20 -15 0 -9 10 -15 26
-15 21 0 25 4 22 23 -2 14 -11 23 -25 25 -13 2 -23 10 -23 18 0 8 -9 14 -20
14 -15 0 -20 -7 -20 -25z"/>
<path d="M2890 1165 c0 -20 5 -25 25 -25 20 0 25 5 25 25 0 20 -5 25 -25 25
-20 0 -25 -5 -25 -25z"/>
<path d="M2994 1165 c-4 -8 -15 -15 -25 -15 -14 0 -19 -7 -19 -25 0 -18 5 -25
20 -25 11 0 20 7 20 15 0 9 9 15 25 15 20 0 25 5 25 25 0 18 -5 25 -20 25 -11
0 -23 -7 -26 -15z"/>
<path d="M3093 1150 c-3 -11 -12 -20 -19 -20 -8 0 -14 -9 -14 -20 0 -15 7 -20
25 -20 16 0 25 6 25 15 0 8 7 15 15 15 9 0 15 9 15 25 0 32 -39 36 -47 5z"/>
<path d="M3370 1153 c0 -42 13 -63 36 -63 17 0 24 6 24 20 0 11 -4 20 -10 20
-5 0 -10 9 -10 20 0 13 -7 20 -20 20 -12 0 -20 -7 -20 -17z"/>
<path d="M3186 1138 c-10 -40 -7 -58 12 -58 16 0 42 40 42 67 0 23 -47 15 -54
-9z"/>
<path d="M3282 1123 c2 -31 7 -39 26 -41 20 -3 22 1 22 37 0 37 -2 41 -26 41
-23 0 -25 -3 -22 -37z"/>
</g>
</svg>
